<?xml version="1.0" encoding="utf-8"?>
<!-- Generator: Adobe Illustrator 17.0.0, SVG Export Plug-In . SVG Version: 6.00 Build 0)  -->
<!DOCTYPE svg PUBLIC "-//W3C//DTD SVG 1.1//EN" "http://www.w3.org/Graphics/SVG/1.1/DTD/svg11.dtd">
<svg version="1.1" id="Layer_1" xmlns="http://www.w3.org/2000/svg" xmlns:xlink="http://www.w3.org/1999/xlink" x="0px" y="0px"
	 width="33px" height="33px" viewBox="0 0 33 33" enable-background="new 0 0 33 33" xml:space="preserve">
<g>
	<path fill="#FFFFFF" d="M33,2.5C33,3.881,31.881,5,30.5,5h-28C1.119,5,0,3.881,0,2.5l0,0C0,1.119,1.119,0,2.5,0h28
		C31.881,0,33,1.119,33,2.5L33,2.5z"/>
	<path fill="#FFFFFF" d="M2.5,0C3.881,0,5,1.119,5,2.5v28C5,31.881,3.881,33,2.5,33l0,0C1.119,33,0,31.881,0,30.5l0-28
		C0,1.119,1.119,0,2.5,0L2.5,0z"/>
</g>
</svg>
